<?xml version="1.0" encoding="UTF-8" standalone="no"?>
<!-- Created with Inkscape (http://www.inkscape.org/) -->

<svg
   width="180"
   height="167"
   viewBox="0 0 47.625001 44.185415"
   version="1.1"
   id="svg2831"
   inkscape:version="1.1 (c68e22c387, 2021-05-23)"
   sodipodi:docname="logo-g4-180x167.svg"
   xmlns:inkscape="http://www.inkscape.org/namespaces/inkscape"
   xmlns:sodipodi="http://sodipodi.sourceforge.net/DTD/sodipodi-0.dtd"
   xmlns="http://www.w3.org/2000/svg"
   xmlns:svg="http://www.w3.org/2000/svg">
  <sodipodi:namedview
     id="namedview2833"
     pagecolor="#505050"
     bordercolor="#ffffff"
     borderopacity="1"
     inkscape:pageshadow="0"
     inkscape:pageopacity="0"
     inkscape:pagecheckerboard="1"
     inkscape:document-units="mm"
     showgrid="false"
     fit-margin-top="0"
     fit-margin-left="0"
     fit-margin-right="0"
     fit-margin-bottom="0"
     inkscape:zoom="3.1037318"
     inkscape:cx="141.76483"
     inkscape:cy="117.92256"
     inkscape:window-width="1920"
     inkscape:window-height="1031"
     inkscape:window-x="0"
     inkscape:window-y="0"
     inkscape:window-maximized="1"
     inkscape:current-layer="layer1"
     units="px" />
  <defs
     id="defs2828">
    <clipPath
       clipPathUnits="userSpaceOnUse"
       id="clipPath792">
      <path
         d="m 749.939,5405.036 h 173.387 v 180.101 H 749.939 Z"
         id="path790" />
    </clipPath>
  </defs>
  <g
     inkscape:label="Calque 1"
     inkscape:groupmode="layer"
     id="layer1"
     transform="translate(-96.948452,-83.423109)">
    <g
       id="g5785">
      <path
         id="path1124"
         style="fill:#183b6b;fill-opacity:1;fill-rule:nonzero;stroke:none;stroke-width:1.03822"
         d="M 48.886719,0 C 1.1738322,0.14674337 0.0625,43.46875 0.0625,43.46875 c -0.06440315,1.698539 -0.07814392,3.348766 -0.04492187,4.941406 -0.03325985,1.589533 -0.01921671,3.229748 0.04492187,4.935547 0,0 1.6180082,63.169067 84.962891,37.205078 0,0 1.623047,-0.192653 1.623047,-2.521484 l -0.01172,-43.839844 c 0,-1.060029 -0.808617,-1.931641 -1.794922,-1.931641 h -25.59375 c -0.988422,0 -1.794922,0.871612 -1.794922,1.931641 V 59.21875 c 0,1.063166 0.8065,1.933594 1.794922,1.933594 h 8.285156 c 0.986306,0 1.800781,0.866784 1.800781,1.925781 V 75.509766 C 61.930381,77.501085 27.122376,80.824726 26.837891,48.410156 26.493198,9.1464064 85.5625,28.164063 85.5625,28.164062 c 1.264554,0.189997 1.083984,-1.9375 1.083984,-1.9375 V 8.78125 c 0,-2.3256302 -1.621093,-2.5175781 -1.621093,-2.5175781 C 70.701419,1.8010349 58.79137,-0.0299588 48.888672,0 Z m 112.722661,1.6308594 -15.1543,0.019531 c -2.54264,0 -3.79492,1.7011719 -3.79492,1.7011719 L 98.285156,56.175781 c -0.701858,0.836814 -1.27539,2.385786 -1.27539,3.4375 v 12.246094 c 0,1.057965 0.933773,1.916016 2.082031,1.916016 h 77.037113 c 1.15245,0 2.08789,-0.858051 2.08789,-1.916016 V 61.417969 c 0,-1.055864 -0.93544,-1.914063 -2.08789,-1.914063 h -12.49805 c 0,0 0.0664,-54.735262 0.0664,-55.7890622 V 3.5488281 c 0,-1.060029 -0.93651,-1.9179687 -2.08789,-1.9179687 z M 138.4082,30.255859 c 0.28687,0.01625 0.46875,0.337513 0.46875,0.935547 v 26.410156 c 0,1.062101 -0.94877,1.935547 -2.10742,1.935547 h -21.32812 c -1.15344,0 -1.52488,-0.690183 -0.81055,-1.533203 l 22.95117,-27.220703 c 0.31484,-0.367937 0.60295,-0.539971 0.82617,-0.527344 z"
         transform="matrix(0.26458333,0,0,0.26458333,96.948422,83.423205)" />
      <path
         id="path1130"
         style="fill:#183b6b;fill-opacity:1;fill-rule:nonzero;stroke:none;stroke-width:0.274696"
         d="m 110.65301,115.51324 c -0.30986,0 -0.58182,0.0635 -0.81752,0.18965 -0.23541,0.12664 -0.41766,0.30448 -0.54622,0.5333 -0.12856,0.2291 -0.19275,0.49399 -0.19275,0.79478 v 1.64796 c 0,0.3008 0.0642,0.56569 0.19275,0.79479 0.12856,0.22855 0.31081,0.40666 0.54622,0.5333 0.2357,0.12635 0.50766,0.18965 0.81752,0.18965 0.30958,0 0.58353,-0.0633 0.82114,-0.18965 0.23761,-0.12664 0.42077,-0.30475 0.54932,-0.5333 0.1286,-0.2291 0.19275,-0.49399 0.19275,-0.79479 v -1.64796 c 0,-0.30079 -0.0642,-0.56568 -0.19275,-0.79478 -0.12855,-0.22882 -0.31171,-0.40666 -0.54932,-0.5333 -0.23761,-0.12608 -0.51156,-0.18965 -0.82114,-0.18965 z m 4.72219,0 c -0.30985,0 -0.58183,0.0635 -0.81752,0.18965 -0.23569,0.12664 -0.41766,0.30448 -0.54622,0.5333 -0.12856,0.2291 -0.19327,0.49399 -0.19327,0.79478 v 1.64796 c 0,0.3008 0.0647,0.56569 0.19327,0.79479 0.12856,0.22855 0.31053,0.40666 0.54622,0.5333 0.23569,0.12635 0.50767,0.18965 0.81752,0.18965 0.30959,0 0.58302,-0.0633 0.82063,-0.18965 0.23761,-0.12664 0.42076,-0.30475 0.54932,-0.5333 0.1286,-0.2291 0.19275,-0.49399 0.19275,-0.79479 v -1.64796 c 0,-0.30079 -0.0642,-0.56568 -0.19275,-0.79478 -0.12856,-0.22882 -0.31171,-0.40666 -0.54932,-0.5333 -0.23761,-0.12608 -0.51104,-0.18965 -0.82063,-0.18965 z m 4.57182,0 c -0.44914,0 -0.80159,0.1014 -1.05678,0.30385 -0.25493,0.203 -0.38241,0.48804 -0.38241,0.85421 0,0.23541 0.0554,0.43058 0.16691,0.5855 0.11126,0.15466 0.2572,0.28073 0.43822,0.37878 0.18076,0.0981 0.43482,0.21314 0.76171,0.34417 0.30959,0.12636 0.54722,0.23721 0.71314,0.3328 0.16537,0.0967 0.28873,0.19869 0.36948,0.30747 0.0807,0.10878 0.12093,0.24032 0.12093,0.39223 0,0.23569 -0.087,0.42411 -0.26149,0.56585 -0.17443,0.14149 -0.42938,0.21291 -0.76533,0.21291 -0.35299,0 -0.63483,-0.0786 -0.84387,-0.23565 -0.20933,-0.15685 -0.31368,-0.35939 -0.31368,-0.60771 v -0.1571 c 0,-0.0568 -0.0287,-0.0847 -0.0853,-0.0847 h -0.28112 c -0.0566,0 -0.0853,0.0279 -0.0853,0.0847 v 0.18242 c 0,0.24448 0.0644,0.45926 0.19327,0.64441 0.12855,0.18542 0.31171,0.32813 0.54932,0.4284 0.23761,0.10026 0.51541,0.15089 0.83406,0.15089 0.47935,0 0.85328,-0.11042 1.12138,-0.33073 0.26783,-0.22003 0.40256,-0.51103 0.40256,-0.87281 0,-0.23542 -0.0592,-0.43521 -0.17674,-0.59893 -0.11757,-0.1629 -0.27463,-0.30127 -0.47077,-0.41445 -0.19613,-0.11373 -0.45367,-0.2356 -0.77205,-0.3669 -0.30958,-0.12169 -0.53935,-0.22106 -0.68988,-0.29714 -0.15026,-0.0764 -0.26653,-0.16547 -0.34674,-0.2682 -0.0811,-0.10247 -0.12093,-0.23228 -0.12093,-0.38913 0,-0.2398 0.0815,-0.42269 0.24495,-0.54932 0.16345,-0.1264 0.40021,-0.18965 0.70952,-0.18965 0.35793,0 0.63454,0.0804 0.83095,0.24133 0.19641,0.16124 0.29404,0.36843 0.29404,0.62115 v 0.0987 c 0,0.0569 0.0285,0.0853 0.0853,0.0853 h 0.28784 c 0.0569,0 0.0847,-0.0285 0.0847,-0.0853 v -0.12454 c 0,-0.37469 -0.13898,-0.67588 -0.41807,-0.90278 -0.27909,-0.22635 -0.65829,-0.34003 -1.13791,-0.34003 z m 16.25895,0 c -0.30519,0 -0.57357,0.0598 -0.8046,0.17983 -0.23102,0.12032 -0.41094,0.28963 -0.5395,0.50746 -0.1286,0.21811 -0.19275,0.46868 -0.19275,0.75189 v 1.80506 c 0,0.28349 0.0642,0.53429 0.19275,0.75241 0.12856,0.21756 0.30848,0.3864 0.5395,0.50643 0.23103,0.12005 0.49941,0.18035 0.8046,0.18035 0.46643,0 0.83804,-0.13095 1.11466,-0.39274 0.2769,-0.26178 0.41548,-0.62601 0.41548,-1.09244 v -0.82372 c 0,-0.0569 -0.0284,-0.0853 -0.0847,-0.0853 h -1.34772 c -0.0568,0 -0.0848,0.0285 -0.0848,0.0853 v 0.23512 c 0,0.0566 0.028,0.0853 0.0848,0.0853 h 0.93535 c 0.022,0 0.0331,0.0111 0.0331,0.0331 v 0.58808 c 0,0.29201 -0.095,0.52579 -0.28474,0.70022 -0.18954,0.17416 -0.44361,0.26148 -0.76171,0.26148 -0.32689,0 -0.59115,-0.0938 -0.79168,-0.28112 -0.20025,-0.1879 -0.30076,-0.43429 -0.30076,-0.73949 v -1.8309 c 0,-0.30519 0.0982,-0.55108 0.29404,-0.73897 0.19641,-0.18735 0.45599,-0.28164 0.77876,-0.28164 0.3225,0 0.58069,0.0915 0.77463,0.27441 0.19393,0.18322 0.29146,0.42086 0.29146,0.71313 v 0.0718 c 0,0.0481 0.0281,0.0718 0.0847,0.0718 h 0.29455 c 0.0563,0 0.0847,-0.0281 0.0847,-0.0847 v -0.0656 c 0,-0.26563 -0.0633,-0.50471 -0.18965,-0.71623 -0.12663,-0.21179 -0.30601,-0.37594 -0.5395,-0.49351 -0.23322,-0.11761 -0.50048,-0.17673 -0.80099,-0.17673 z m -31.62236,0.0527 c -0.0568,0 -0.0847,0.0281 -0.0847,0.0847 v 4.40852 c 0,0.0568 0.0279,0.0848 0.0847,0.0848 h 1.56322 c 0.40986,0 0.74008,-0.10901 0.99115,-0.32711 0.25053,-0.21756 0.37569,-0.52264 0.37569,-0.91519 0,-0.26618 -0.0601,-0.49269 -0.17984,-0.68058 -0.12004,-0.18734 -0.29555,-0.32864 -0.52658,-0.42478 -0.0261,-0.0132 -0.0261,-0.0262 0,-0.0393 0.21372,-0.0915 0.37633,-0.22012 0.48731,-0.38603 0.1115,-0.16592 0.16692,-0.36894 0.16692,-0.60875 0,-0.37909 -0.121,-0.67276 -0.36329,-0.88263 -0.24173,-0.20932 -0.57432,-0.31367 -0.99736,-0.31367 z m 18.20148,0 c -0.0566,0 -0.0847,0.0284 -0.0847,0.0847 v 0.24237 c 0,0.0566 0.0281,0.0847 0.0847,0.0847 h 1.20303 c 0.022,0 0.0331,0.0114 0.0331,0.0331 v 4.04833 c 0,0.0569 0.0285,0.0848 0.0853,0.0848 h 0.29404 c 0.0569,0 0.0853,-0.028 0.0853,-0.0848 v -4.04833 c 0,-0.0217 0.0105,-0.0331 0.0326,-0.0331 h 1.25574 c 0.0566,0 0.0847,-0.0282 0.0847,-0.0847 v -0.24237 c 0,-0.0563 -0.0281,-0.0847 -0.0847,-0.0847 z m 4.69894,0 c -0.0499,0.003 -0.0749,0.0321 -0.0749,0.0847 v 4.40852 c 0,0.0568 0.0279,0.0848 0.0848,0.0848 h 0.29455 c 0.0566,0 0.0853,-0.028 0.0853,-0.0848 v -4.40852 c 0,-0.056 -0.0287,-0.0847 -0.0853,-0.0847 h -0.29455 c -0.004,0 -0.007,-2.1e-4 -0.01,0 z m 2.35799,0 c -0.0568,0 -0.0847,0.0286 -0.0847,0.0847 v 4.40852 h -5.2e-4 c 0,0.0568 0.028,0.0848 0.0847,0.0848 h 0.29456 c 0.0566,0 0.0848,-0.028 0.0848,-0.0848 l -0.006,-3.53157 c 0,-0.0173 0.005,-0.0279 0.0134,-0.0295 0.008,-0.002 0.0173,0.003 0.0264,0.016 l 2.204,3.57084 c 0.0261,0.0393 0.0584,0.0589 0.0977,0.0589 h 0.29456 c 0.0566,0 0.0848,-0.028 0.0848,-0.0848 v -4.40852 c 0,-0.056 -0.0282,-0.0847 -0.0848,-0.0847 h -0.29456 c -0.0566,0 -0.0847,0.0286 -0.0847,0.0847 v 3.51865 c 0,0.0175 -0.004,0.0271 -0.0129,0.0295 -0.009,0.002 -0.0179,-0.003 -0.0264,-0.016 l -2.1978,-3.55793 c -0.0261,-0.039 -0.0587,-0.0589 -0.0977,-0.0589 z m -19.18901,0.35346 c 0.33128,0 0.59736,0.10114 0.79789,0.30386 0.20025,0.20273 0.30075,0.46997 0.30075,0.80098 v 1.67432 c 0,0.33128 -0.1005,0.59735 -0.30075,0.79789 -0.20053,0.20053 -0.46661,0.30127 -0.79789,0.30127 -0.32717,0 -0.59063,-0.10074 -0.79116,-0.30127 -0.20054,-0.20054 -0.30076,-0.46661 -0.30076,-0.79789 v -1.67432 c 0,-0.33101 0.10022,-0.59825 0.30076,-0.80098 0.20053,-0.20272 0.46399,-0.30386 0.79116,-0.30386 z m 4.72219,0 c 0.33129,0 0.59736,0.10114 0.79789,0.30386 0.20025,0.20273 0.30075,0.46997 0.30075,0.80098 v 1.67432 c 0,0.33128 -0.1005,0.59735 -0.30075,0.79789 -0.20053,0.20053 -0.4666,0.30127 -0.79789,0.30127 -0.32716,0 -0.59115,-0.10074 -0.79168,-0.30127 -0.20053,-0.20054 -0.30024,-0.46661 -0.30024,-0.79789 v -1.67432 c 0,-0.33101 0.0997,-0.59825 0.30024,-0.80098 0.20053,-0.20272 0.46452,-0.30386 0.79168,-0.30386 z m -10.37972,0.0517 h 1.10535 c 0.27497,0 0.49412,0.0756 0.65785,0.22582 0.16317,0.15054 0.24494,0.35244 0.24494,0.60462 0,0.24008 -0.0818,0.43225 -0.24494,0.57619 -0.16373,0.14397 -0.38288,0.21549 -0.65785,0.21549 h -1.10535 c -0.022,0 -0.0326,-0.0111 -0.0326,-0.0331 v -1.55649 c 0,-0.0214 0.0106,-0.0326 0.0326,-0.0326 z m 0,2.01435 h 1.12499 c 0.28349,0 0.50939,0.0799 0.67696,0.23926 0.16784,0.15905 0.25167,0.37182 0.25167,0.63717 0,0.26618 -0.0815,0.47746 -0.24495,0.63459 -0.16345,0.15712 -0.38262,0.23512 -0.65732,0.23512 h -1.15135 c -0.022,0 -0.0326,-0.01 -0.0326,-0.032 v -1.68103 c 0,-0.0217 0.0106,-0.0331 0.0326,-0.0331 z m 6.51743,4.94078 c -0.30985,0 -0.58182,0.0633 -0.81752,0.18965 -0.23569,0.12663 -0.41794,0.30424 -0.54622,0.53279 -0.12856,0.22937 -0.19276,0.4937 -0.19276,0.79478 v 1.64796 c 0,0.30108 0.0642,0.56619 0.19276,0.7953 0.12828,0.22854 0.31053,0.40616 0.54622,0.53278 0.2357,0.12607 0.50767,0.18914 0.81752,0.18914 0.30959,0 0.58353,-0.0631 0.82114,-0.18914 0.23761,-0.12662 0.42076,-0.30424 0.54932,-0.53278 0.1286,-0.22911 0.19275,-0.49422 0.19275,-0.7953 v -1.64796 c 0,-0.30108 -0.0642,-0.56541 -0.19275,-0.79478 -0.12856,-0.22855 -0.31171,-0.40616 -0.54932,-0.53279 -0.23761,-0.12639 -0.51155,-0.18965 -0.82114,-0.18965 z m 25.60515,0 c -0.30958,0 -0.58182,0.0633 -0.81752,0.18965 -0.23541,0.12663 -0.41714,0.30424 -0.5457,0.53279 -0.12856,0.22937 -0.19327,0.4937 -0.19327,0.79478 v 1.64796 c 0,0.30108 0.0647,0.56619 0.19327,0.7953 0.12856,0.22854 0.31029,0.40616 0.5457,0.53278 0.2357,0.12607 0.50794,0.18914 0.81752,0.18914 0.30958,0 0.58325,-0.0631 0.82114,-0.18914 0.23734,-0.12662 0.42076,-0.30424 0.54932,-0.53278 0.12852,-0.22911 0.19275,-0.49422 0.19275,-0.7953 v -1.64796 c 0,-0.30108 -0.0642,-0.56541 -0.19275,-0.79478 -0.12856,-0.22855 -0.31198,-0.40616 -0.54932,-0.53279 -0.23789,-0.12639 -0.51156,-0.18965 -0.82114,-0.18965 z m -22.21104,0.0455 c -0.0566,0 -0.0847,0.0285 -0.0847,0.0847 v 4.41524 c 0,0.0568 0.0281,0.0847 0.0847,0.0847 h 0.29455 c 0.0569,0 0.0853,-0.028 0.0853,-0.0847 v -1.98851 c 0,-0.0214 0.0105,-0.0326 0.0326,-0.0326 h 1.09193 c 0.0173,0 0.0305,0.009 0.0393,0.0258 l 0.9555,2.01435 c 0.0217,0.0439 0.0561,0.0656 0.10438,0.0656 h 0.30076 c 0.0522,0 0.0786,-0.0194 0.0786,-0.0584 0,-0.009 -0.004,-0.0217 -0.0129,-0.0393 l -0.97462,-2.00143 c -0.009,-0.022 -0.002,-0.0347 0.0191,-0.0393 0.28349,-0.0651 0.50759,-0.20397 0.67076,-0.41548 0.16372,-0.21098 0.24547,-0.46943 0.24547,-0.77463 0,-0.37469 -0.11573,-0.67822 -0.34675,-0.90951 -0.2313,-0.23102 -0.5343,-0.34675 -0.90899,-0.34675 z m -13.73405,0.006 -0.29456,5.2e-4 c -0.0568,0 -0.0853,0.0286 -0.0853,0.0847 v 4.40852 c 0,0.0568 0.028,0.0847 0.0847,0.0847 h 0.29404 c 0.0569,0 0.0853,-0.028 0.0853,-0.0847 l -0.006,-3.53156 c 0,-0.0176 0.004,-0.0271 0.0129,-0.0295 0.009,-0.002 0.0178,0.003 0.0269,0.0165 l 2.204,3.57084 c 0.0261,0.0393 0.0584,0.0584 0.0977,0.0584 h 0.29455 c 0.0563,0 0.0847,-0.028 0.0847,-0.0847 v -4.40852 c 0,-0.0561 -0.0284,-0.0847 -0.0847,-0.0847 h -0.29455 c -0.0566,0 -0.0847,0.0286 -0.0847,0.0847 v 3.51865 c 0,0.0175 -0.004,0.0271 -0.0129,0.0295 -0.009,0.002 -0.0179,-0.003 -0.0264,-0.016 l -2.19728,-3.55792 c -0.0261,-0.039 -0.0594,-0.0594 -0.0987,-0.0594 z m 39.63427,0 -0.29455,5.2e-4 c -0.0568,0 -0.0853,0.0286 -0.0853,0.0847 v 4.40852 c 0,0.0568 0.0279,0.0847 0.0847,0.0847 h 0.29456 c 0.0566,0 0.0847,-0.028 0.0847,-0.0847 l -0.006,-3.53156 c 0,-0.0176 0.004,-0.0271 0.0134,-0.0295 0.009,-0.002 0.0175,0.003 0.0264,0.0165 l 2.204,3.57084 c 0.0261,0.0393 0.0589,0.0584 0.0982,0.0584 h 0.29456 c 0.0566,0 0.0847,-0.028 0.0847,-0.0847 v -4.40852 c 0,-0.0561 -0.0281,-0.0847 -0.0847,-0.0847 h -0.29456 c -0.0569,0 -0.0853,0.0286 -0.0853,0.0847 v 3.51865 c 0,0.0175 -0.004,0.0271 -0.0129,0.0295 -0.009,0.002 -0.0173,-0.003 -0.0258,-0.016 l -2.1978,-3.55792 c -0.0261,-0.039 -0.0592,-0.0594 -0.0982,-0.0594 z m -42.276486,5.2e-4 c -0.05687,0 -0.08475,0.0286 -0.08475,0.0847 v 4.40852 c 0,0.0568 0.02788,0.0847 0.08475,0.0847 h 0.294039 c 0.05686,0 0.08527,-0.028 0.08527,-0.0847 v -4.40852 c 0,-0.0561 -0.02841,-0.0847 -0.08527,-0.0847 z m 7.311696,0 c -0.0569,0 -0.0847,0.029 -0.0847,0.0853 v 4.408 c 0,0.0568 0.028,0.0847 0.0847,0.0847 h 0.29404 c 0.0569,0 0.0853,-0.028 0.0853,-0.0847 v -1.98179 c 0,-0.0217 0.0111,-0.0326 0.0331,-0.0326 h 1.65468 c 0.0563,0 0.0853,-0.0285 0.0853,-0.0853 v -0.23565 c 0,-0.0566 -0.029,-0.0847 -0.0853,-0.0847 h -1.65468 c -0.022,0 -0.0331,-0.0111 -0.0331,-0.0331 v -1.60197 c 0,-0.0217 0.0111,-0.0326 0.0331,-0.0326 h 2.37402 c 0.0569,0 0.0853,-0.0287 0.0853,-0.0853 v -0.23513 c 0,-0.0563 -0.0285,-0.0853 -0.0853,-0.0853 z m 13.72165,0 c -0.0568,0 -0.0847,0.0286 -0.0847,0.0847 v 4.40852 c 0,0.0568 0.028,0.0847 0.0847,0.0847 h 0.29403 c 0.0569,0 0.0853,-0.028 0.0853,-0.0847 v -3.61063 c 0,-0.0171 0.004,-0.0258 0.0129,-0.0258 0.008,0 0.0174,0.006 0.0263,0.0191 l 1.03353,1.63556 c 0.0261,0.039 0.0589,0.0594 0.0982,0.0594 h 0.15038 c 0.039,0 0.0721,-0.0204 0.0982,-0.0594 l 1.03301,-1.63556 c 0.008,-0.0132 0.0175,-0.0191 0.0264,-0.0191 0.008,0 0.0129,0.009 0.0129,0.0258 v 3.61063 c 0,0.0568 0.0285,0.0847 0.0853,0.0847 h 0.29404 c 0.0563,0 0.0853,-0.028 0.0853,-0.0847 v -4.40852 c 0,-0.0561 -0.029,-0.0847 -0.0853,-0.0847 h -0.30747 c -0.0393,0 -0.0721,0.02 -0.0982,0.0589 l -1.20354,1.8898 c -0.0132,0.0264 -0.0259,0.0264 -0.0388,0 l -1.19734,-1.8898 c -0.0261,-0.039 -0.0584,-0.0589 -0.0977,-0.0589 z m 6.37687,0 c -0.0484,0 -0.0784,0.024 -0.0915,0.0723 l -1.43919,4.408 c -0.009,0.0302 -0.006,0.0542 0.006,0.0718 0.0132,0.0173 0.0348,0.0258 0.0656,0.0258 h 0.31368 c 0.0478,0 0.0786,-0.0235 0.0915,-0.0718 l 0.25529,-0.79788 c 0.009,-0.0171 0.0193,-0.0258 0.0326,-0.0258 h 1.94924 c 0.0129,0 0.0238,0.009 0.0326,0.0258 l 0.262,0.79788 c 0.0129,0.0483 0.0435,0.0718 0.0915,0.0718 h 0.31419 c 0.0217,0 0.0404,-0.007 0.0558,-0.0196 0.0153,-0.0129 0.0227,-0.0284 0.0227,-0.046 0,-0.0126 -0.002,-0.0232 -0.007,-0.032 l -1.44539,-4.408 c -0.0132,-0.0483 -0.0431,-0.0723 -0.091,-0.0723 z m 2.79259,0 c -0.0566,0 -0.0848,0.029 -0.0848,0.0853 v 0.24185 c 0,0.0566 0.0282,0.0853 0.0848,0.0853 h 1.20355 c 0.022,0 0.0326,0.0109 0.0326,0.0326 v 4.04833 c 0,0.0569 0.0285,0.0853 0.0853,0.0853 h 0.29404 c 0.0569,0 0.0853,-0.0285 0.0853,-0.0853 v -4.04833 c 0,-0.0217 0.0106,-0.0326 0.0326,-0.0326 h 1.25574 c 0.0566,0 0.0853,-0.0287 0.0853,-0.0853 v -0.24185 c 0,-0.0563 -0.0287,-0.0853 -0.0853,-0.0853 z m 4.70876,0 c -0.0568,0 -0.0847,0.0286 -0.0847,0.0847 v 4.40852 c 0,0.0568 0.028,0.0847 0.0847,0.0847 h 0.29455 c 0.0566,0 0.0847,-0.028 0.0847,-0.0847 v -4.40852 c 0,-0.0561 -0.0281,-0.0847 -0.0847,-0.0847 z m -21.92941,0.35346 c 0.33129,0 0.59735,0.10086 0.79788,0.30386 0.20026,0.20273 0.30076,0.46996 0.30076,0.80098 v 1.67432 c 0,0.33129 -0.1005,0.59787 -0.30076,0.7984 -0.20053,0.20053 -0.46659,0.30076 -0.79788,0.30076 -0.32716,0 -0.59063,-0.10023 -0.79117,-0.30076 -0.20053,-0.20053 -0.30127,-0.46711 -0.30127,-0.7984 v -1.67432 c 0,-0.33102 0.10074,-0.59825 0.30127,-0.80098 0.20054,-0.203 0.46401,-0.30386 0.79117,-0.30386 z m 25.60515,0 c 0.33156,0 0.59787,0.10085 0.7984,0.30386 0.20025,0.20273 0.30076,0.46996 0.30076,0.80098 v 1.67432 c 0,0.33129 -0.10051,0.59787 -0.30076,0.7984 -0.20053,0.20053 -0.46684,0.30076 -0.7984,0.30076 -0.32717,0 -0.5909,-0.10023 -0.79116,-0.30076 -0.2008,-0.20053 -0.30128,-0.46711 -0.30128,-0.7984 v -1.67432 c 0,-0.33102 0.10048,-0.59825 0.30128,-0.80098 0.20026,-0.20301 0.46399,-0.30386 0.79116,-0.30386 z m -21.79867,0.0455 h 1.20975 c 0.25271,0 0.4581,0.0794 0.61495,0.23874 0.15685,0.15932 0.23564,0.36533 0.23564,0.61805 0,0.25272 -0.0787,0.45747 -0.23564,0.61185 -0.15685,0.15491 -0.36224,0.23151 -0.61495,0.23151 h -1.20975 c -0.022,0 -0.0326,-0.01 -0.0326,-0.032 v -1.63556 c 0,-0.0214 0.0105,-0.0326 0.0326,-0.0326 z m 10.83035,0.1633 h 5.2e-4 c 0.009,0 0.0152,0.009 0.0191,0.0264 l 0.85111,2.67529 c 0.008,0.0264 -4.3e-4,0.0388 -0.0269,0.0388 h -1.68052 c -0.0222,0 -0.031,-0.0124 -0.0264,-0.0388 l 0.84336,-2.67529 c 0.004,-0.0173 0.0108,-0.0264 0.0196,-0.0264 z" />
      <path
         id="path1128"
         style="fill:#183b6b;fill-opacity:1;fill-rule:nonzero;stroke:none;stroke-width:0.348009"
         d="m 97.943193,112.26279 v 0.52916 h 46.630227 v -0.52916 z" />
      <path
         d="m 134.56633,104.21301 c 0,-0.34117 0.22497,-0.52 0.49775,-0.39831 l 5.83487,2.59013 c 0.27305,0.12279 0.27497,0.32469 0.002,0.44775 l -5.83817,2.66045 c -0.27387,0.1239 -0.49638,-0.0522 -0.49638,-0.39336 z"
         style="fill:#00b5dd;fill-opacity:1;fill-rule:nonzero;stroke:none;stroke-width:0.274698"
         id="path800" />
    </g>
  </g>
</svg>
